<svg width="315" height="431" viewBox="0 0 315 431" fill="none" xmlns="http://www.w3.org/2000/svg">
<path d="M25.2134 41.7266L38.8243 160.047L41 181C47.9186 174.071 67.9802 157.193 92.8779 145.107L87.62 6.60667L25.2134 41.7266Z" fill="white" stroke="black" stroke-width="3"/>
<path d="M56.5586 424.105L53.34 330.66L101.993 332.5L104.463 385.773L56.5586 424.105Z" fill="white"/>
<path d="M101.922 330.977L101.993 332.5M101.993 332.5L104.463 385.773L56.5586 424.105L53.34 330.66L101.993 332.5Z" stroke="black" stroke-width="3"/>
<path d="M157.5 134.506C243.871 134.506 313.5 194.923 313.5 269.006C313.5 287.535 308.939 300.568 300.942 309.788C292.93 319.027 281.301 324.631 266.784 327.96C252.26 331.291 234.987 332.312 215.839 332.491C196.636 332.67 175.852 332.006 154 332.006C132.146 332.006 111.801 332.67 93.2549 332.491C74.7629 332.312 58.3745 331.29 44.7363 327.965C31.1142 324.644 20.3658 319.055 13.002 309.835C5.63902 300.617 1.5 287.568 1.5 269.006C1.5 194.923 71.1294 134.506 157.5 134.506Z" fill="white" stroke="black" stroke-width="3"/>
<path d="M98.5 178.006C109.247 178.006 118 186.938 118 198.006C118 209.075 109.247 218.006 98.5 218.006C87.753 218.006 79 209.075 79 198.006C79 186.938 87.753 178.006 98.5 178.006Z" stroke="black" stroke-width="2"/>
<path d="M192.5 178.006C203.247 178.006 212 186.938 212 198.006C212 209.075 203.247 218.006 192.5 218.006C181.753 218.006 173 209.075 173 198.006C173 186.938 181.753 178.006 192.5 178.006Z" stroke="black" stroke-width="2"/>
<path d="M105 296.006H90.6364V249.461H105.636C110.152 249.461 114.015 250.393 117.227 252.256C120.439 254.105 122.902 256.764 124.614 260.233C126.326 263.688 127.182 267.824 127.182 272.643C127.182 277.491 126.318 281.665 124.591 285.165C122.864 288.65 120.348 291.332 117.045 293.211C113.742 295.074 109.727 296.006 105 296.006ZM96.2727 291.006H104.636C108.485 291.006 111.674 290.264 114.205 288.779C116.735 287.294 118.621 285.18 119.864 282.438C121.106 279.696 121.727 276.43 121.727 272.643C121.727 268.885 121.114 265.65 119.886 262.938C118.659 260.211 116.826 258.12 114.386 256.665C111.947 255.196 108.909 254.461 105.273 254.461H96.2727V291.006ZM136.636 296.006V249.461H164.727V254.461H142.273V270.188H163.273V275.188H142.273V291.006H165.091V296.006H136.636ZM176.795 249.461L190.614 288.643H191.159L204.977 249.461H210.886L193.795 296.006H187.977L170.886 249.461H176.795Z" fill="black"/>
<path d="M149.5 227.006C173.535 227.006 195.245 232.074 210.91 240.22C226.624 248.391 236 259.504 236 271.506C236 283.508 226.624 294.621 210.91 302.792C195.245 310.938 173.535 316.006 149.5 316.006C125.465 316.006 103.755 310.938 88.0898 302.792C72.3757 294.621 63 283.508 63 271.506C63 259.504 72.3757 248.391 88.0898 240.22C103.755 232.074 125.465 227.006 149.5 227.006Z" stroke="black" stroke-width="2"/>
<path d="M123.5 174.506L129 159.506L85 156.006V168.506L123.5 174.506Z" stroke="black" stroke-width="3"/>
<path d="M173 176.506L170.5 165.506L201.5 156.006L208 165.506L173 176.506Z" stroke="black" stroke-width="3"/>
<path d="M310.492 39L229.029 147.131C221.394 143.684 203.583 137.279 183.356 134.766L234.399 39H310.492Z" fill="white" stroke="black" stroke-width="3"/>
<path d="M222.5 393L189 333.5L250.5 331L289.5 393H222.5Z" fill="white" stroke="black" stroke-width="3"/>
</svg>
